<mxfile host="65bd71144e">
    <diagram id="pZF82sgt9ipkq0co79kk" name="第 1 页">
        <mxGraphModel dx="4211" dy="1800" grid="1" gridSize="10" guides="1" tooltips="1" connect="1" arrows="1" fold="1" page="1" pageScale="1" pageWidth="1600" pageHeight="900" math="0" shadow="0">
            <root>
                <mxCell id="0"/>
                <mxCell id="1" parent="0"/>
                <mxCell id="169" value="" style="group" parent="1" vertex="1" connectable="0">
                    <mxGeometry x="-2000" y="-480" width="1600" height="1790" as="geometry"/>
                </mxCell>
                <mxCell id="160" value="&lt;font style=&quot;font-size: 19px&quot;&gt;Xla Compile Op&lt;/font&gt;" style="rounded=0;whiteSpace=wrap;html=1;glass=0;fontSize=12;startSize=20;dashed=1;align=left;verticalAlign=top;" parent="169" vertex="1">
                    <mxGeometry x="20" y="20" width="1560" height="1750" as="geometry"/>
                </mxCell>
                <mxCell id="24" value="TFGraph&lt;br&gt;TF Funtion" style="rounded=1;whiteSpace=wrap;html=1;" parent="169" vertex="1">
                    <mxGeometry x="700" y="80" width="130" height="80" as="geometry"/>
                </mxCell>
                <mxCell id="63" value="" style="group" parent="169" vertex="1" connectable="0">
                    <mxGeometry x="626.25" y="830" width="277.5" height="250" as="geometry"/>
                </mxCell>
                <mxCell id="126" value="" style="group" parent="63" vertex="1" connectable="0">
                    <mxGeometry width="277.5" height="250" as="geometry"/>
                </mxCell>
                <mxCell id="25" value="XlaCompilationResult" style="rounded=1;whiteSpace=wrap;html=1;verticalAlign=top;" parent="126" vertex="1">
                    <mxGeometry width="277.5" height="250" as="geometry"/>
                </mxCell>
                <mxCell id="61" value="XlaComputation" style="rounded=1;whiteSpace=wrap;html=1;verticalAlign=top;" parent="126" vertex="1">
                    <mxGeometry x="20" y="40" width="240" height="200" as="geometry"/>
                </mxCell>
                <mxCell id="62" value="HloModuleProto" style="rounded=1;whiteSpace=wrap;html=1;verticalAlign=top;" parent="126" vertex="1">
                    <mxGeometry x="40" y="80" width="200" height="150" as="geometry"/>
                </mxCell>
                <mxCell id="123" value="HloComputationProto" style="rounded=1;whiteSpace=wrap;html=1;glass=0;fontSize=12;startSize=20;verticalAlign=top;" parent="126" vertex="1">
                    <mxGeometry x="60" y="120" width="160" height="100" as="geometry"/>
                </mxCell>
                <mxCell id="124" value="HloInstructionProto" style="rounded=1;whiteSpace=wrap;html=1;glass=0;fontSize=12;startSize=20;" parent="126" vertex="1">
                    <mxGeometry x="80" y="160" width="120" height="50" as="geometry"/>
                </mxCell>
                <mxCell id="73" value="" style="group" parent="169" vertex="1" connectable="0">
                    <mxGeometry x="661.25" y="1580" width="207.5" height="140" as="geometry"/>
                </mxCell>
                <mxCell id="141" value="" style="group" parent="73" vertex="1" connectable="0">
                    <mxGeometry y="10" width="207.5" height="120" as="geometry"/>
                </mxCell>
                <mxCell id="170" value="" style="group" vertex="1" connectable="0" parent="141">
                    <mxGeometry width="207.5" height="120" as="geometry"/>
                </mxCell>
                <mxCell id="74" value="LocalExecutable" style="rounded=1;whiteSpace=wrap;html=1;verticalAlign=top;" parent="170" vertex="1">
                    <mxGeometry width="207.5" height="120" as="geometry"/>
                </mxCell>
                <mxCell id="76" value="HloModuleProto" style="rounded=1;whiteSpace=wrap;html=1;" parent="170" vertex="1">
                    <mxGeometry x="20" y="40" width="170" height="70" as="geometry"/>
                </mxCell>
                <mxCell id="78" value="&lt;div style=&quot;font-size: 17px&quot;&gt;1. 拓扑序遍历所有节点&lt;/div&gt;&lt;div style=&quot;font-size: 17px&quot;&gt;2. 为每个Node中的Op创建其对应的XlaOpKernel&lt;/div&gt;&lt;div style=&quot;font-size: 17px&quot;&gt;3. 执行每个Kernel的Compute&lt;/div&gt;&lt;div style=&quot;font-size: 17px&quot;&gt;&lt;br&gt;&lt;/div&gt;&lt;div style=&quot;font-size: 17px&quot;&gt;注意这里只是 用 XlaOp 来定义 xla 的计算图并不是实际的运行&lt;/div&gt;" style="rounded=0;whiteSpace=wrap;html=1;align=left;fontSize=17;" parent="169" vertex="1">
                    <mxGeometry x="950" y="482.5" width="400" height="135" as="geometry"/>
                </mxCell>
                <mxCell id="84" style="edgeStyle=none;html=1;exitX=1;exitY=0;exitDx=0;exitDy=0;entryX=0;entryY=0;entryDx=0;entryDy=0;fontSize=17;" parent="169" source="122" target="78" edge="1">
                    <mxGeometry relative="1" as="geometry">
                        <mxPoint x="875" y="530" as="sourcePoint"/>
                    </mxGeometry>
                </mxCell>
                <mxCell id="85" style="edgeStyle=none;html=1;exitX=1;exitY=1;exitDx=0;exitDy=0;entryX=0;entryY=1;entryDx=0;entryDy=0;fontSize=17;" parent="169" source="122" target="78" edge="1">
                    <mxGeometry relative="1" as="geometry">
                        <mxPoint x="875" y="570" as="sourcePoint"/>
                    </mxGeometry>
                </mxCell>
                <mxCell id="114" style="edgeStyle=none;html=1;exitX=0.5;exitY=1;exitDx=0;exitDy=0;fontSize=12;entryX=0.5;entryY=0;entryDx=0;entryDy=0;" parent="169" source="103" target="25" edge="1">
                    <mxGeometry relative="1" as="geometry">
                        <mxPoint x="765" y="890" as="targetPoint"/>
                    </mxGeometry>
                </mxCell>
                <mxCell id="103" value="Xla/Client" style="swimlane;startSize=20;horizontal=1;childLayout=flowLayout;flowOrientation=north;resizable=0;interRankCellSpacing=50;containerType=tree;fontSize=12;rounded=1;" parent="169" vertex="1">
                    <mxGeometry x="635" y="660" width="260" height="100" as="geometry"/>
                </mxCell>
                <mxCell id="104" value="&lt;span style=&quot;font-size: 12px&quot;&gt;XlaBuilder::Build&lt;/span&gt;" style="whiteSpace=wrap;html=1;fontSize=17;" parent="103" vertex="1">
                    <mxGeometry x="20" y="40" width="220" height="40" as="geometry"/>
                </mxCell>
                <mxCell id="115" value="TF2Xla" style="swimlane;startSize=20;horizontal=1;childLayout=treeLayout;horizontalTree=0;resizable=0;containerType=tree;glass=0;rounded=1;swimlaneFillColor=none;arcSize=15;" parent="169" vertex="1">
                    <mxGeometry x="635" y="210" width="260" height="380" as="geometry"/>
                </mxCell>
                <mxCell id="116" value="XlaCompiler::CompileFunction" style="whiteSpace=wrap;html=1;" parent="115" vertex="1">
                    <mxGeometry x="25" y="40" width="210" height="40" as="geometry"/>
                </mxCell>
                <mxCell id="117" style="edgeStyle=none;html=1;exitX=0.5;exitY=1;exitDx=0;exitDy=0;entryX=0.5;entryY=0;entryDx=0;entryDy=0;" parent="115" source="118" target="121" edge="1">
                    <mxGeometry relative="1" as="geometry"/>
                </mxCell>
                <mxCell id="118" value="XlaCompiler::CompileFunction" style="whiteSpace=wrap;html=1;" parent="115" vertex="1">
                    <mxGeometry x="25" y="130" width="210" height="50" as="geometry"/>
                </mxCell>
                <mxCell id="119" value="" style="edgeStyle=elbowEdgeStyle;elbow=vertical;html=1;rounded=0;" parent="115" source="116" target="118" edge="1">
                    <mxGeometry relative="1" as="geometry"/>
                </mxCell>
                <mxCell id="120" style="edgeStyle=none;html=1;exitX=0.5;exitY=1;exitDx=0;exitDy=0;entryX=0.5;entryY=0;entryDx=0;entryDy=0;" parent="115" source="121" target="122" edge="1">
                    <mxGeometry relative="1" as="geometry"/>
                </mxCell>
                <mxCell id="121" value="ExecuteGraph" style="whiteSpace=wrap;html=1;" parent="115" vertex="1">
                    <mxGeometry x="25" y="230" width="210" height="40" as="geometry"/>
                </mxCell>
                <mxCell id="122" value="GraphCompiler::Compile" style="whiteSpace=wrap;html=1;" parent="115" vertex="1">
                    <mxGeometry x="25" y="320" width="210" height="40" as="geometry"/>
                </mxCell>
                <mxCell id="59" style="edgeStyle=none;html=1;exitX=0.5;exitY=1;exitDx=0;exitDy=0;entryX=0.5;entryY=0;entryDx=0;entryDy=0;" parent="169" source="24" target="115" edge="1">
                    <mxGeometry relative="1" as="geometry">
                        <mxPoint x="765" y="210" as="targetPoint"/>
                    </mxGeometry>
                </mxCell>
                <mxCell id="112" style="edgeStyle=none;html=1;exitX=0.5;exitY=1;exitDx=0;exitDy=0;entryX=0.5;entryY=0;entryDx=0;entryDy=0;fontSize=12;" parent="169" source="115" target="103" edge="1">
                    <mxGeometry relative="1" as="geometry">
                        <mxPoint x="765" y="680" as="sourcePoint"/>
                    </mxGeometry>
                </mxCell>
                <mxCell id="140" style="edgeStyle=none;html=1;exitX=0.5;exitY=1;exitDx=0;exitDy=0;entryX=0.5;entryY=0;entryDx=0;entryDy=0;fontSize=12;startSize=20;" parent="169" source="127" target="74" edge="1">
                    <mxGeometry relative="1" as="geometry"/>
                </mxCell>
                <mxCell id="127" value="xla/service" style="swimlane;startSize=20;horizontal=1;childLayout=treeLayout;horizontalTree=0;resizable=0;containerType=tree;glass=0;rounded=1;swimlaneFillColor=none;arcSize=15;" parent="169" vertex="1">
                    <mxGeometry x="640" y="1140" width="250" height="380" as="geometry"/>
                </mxCell>
                <mxCell id="128" value="LocalService::CompileExecutables" style="whiteSpace=wrap;html=1;" parent="127" vertex="1">
                    <mxGeometry x="20" y="40" width="210" height="40" as="geometry"/>
                </mxCell>
                <mxCell id="129" style="edgeStyle=none;html=1;exitX=0.5;exitY=1;exitDx=0;exitDy=0;entryX=0.5;entryY=0;entryDx=0;entryDy=0;" parent="127" source="130" target="133" edge="1">
                    <mxGeometry relative="1" as="geometry"/>
                </mxCell>
                <mxCell id="130" value="Service::BuildExecutables" style="whiteSpace=wrap;html=1;" parent="127" vertex="1">
                    <mxGeometry x="20" y="130" width="210" height="50" as="geometry"/>
                </mxCell>
                <mxCell id="131" value="" style="edgeStyle=elbowEdgeStyle;elbow=vertical;html=1;rounded=0;" parent="127" source="128" target="130" edge="1">
                    <mxGeometry relative="1" as="geometry"/>
                </mxCell>
                <mxCell id="132" style="edgeStyle=none;html=1;exitX=0.5;exitY=1;exitDx=0;exitDy=0;entryX=0.5;entryY=0;entryDx=0;entryDy=0;" parent="127" source="133" target="134" edge="1">
                    <mxGeometry relative="1" as="geometry"/>
                </mxCell>
                <mxCell id="133" value="Compiler::Compile" style="whiteSpace=wrap;html=1;" parent="127" vertex="1">
                    <mxGeometry x="20" y="230" width="210" height="40" as="geometry"/>
                </mxCell>
                <mxCell id="134" value="LLVMCompiler::Compile" style="whiteSpace=wrap;html=1;" parent="127" vertex="1">
                    <mxGeometry x="20" y="320" width="210" height="40" as="geometry"/>
                </mxCell>
                <mxCell id="135" style="edgeStyle=none;html=1;exitX=0.5;exitY=1;exitDx=0;exitDy=0;entryX=0.5;entryY=0;entryDx=0;entryDy=0;fontSize=12;startSize=20;" parent="169" source="25" target="127" edge="1">
                    <mxGeometry relative="1" as="geometry"/>
                </mxCell>
                <mxCell id="136" value="&lt;div style=&quot;font-size: 17px&quot;&gt;&lt;div&gt;1. RunHloPasses, 对应于下图的硬件无关优化&lt;/div&gt;&lt;div&gt;2. RunBackend, 对应于下图的硬件相关优化以及Codegen&lt;/div&gt;&lt;/div&gt;" style="rounded=0;whiteSpace=wrap;html=1;align=left;fontSize=17;" parent="169" vertex="1">
                    <mxGeometry x="170" y="1400" width="400" height="75" as="geometry"/>
                </mxCell>
                <mxCell id="142" style="edgeStyle=none;html=1;exitX=0;exitY=0;exitDx=0;exitDy=0;entryX=1;entryY=0;entryDx=0;entryDy=0;fontSize=12;startSize=20;" parent="169" source="133" target="136" edge="1">
                    <mxGeometry relative="1" as="geometry"/>
                </mxCell>
                <mxCell id="143" style="edgeStyle=none;html=1;exitX=0;exitY=1;exitDx=0;exitDy=0;entryX=1;entryY=1;entryDx=0;entryDy=0;fontSize=12;startSize=20;" parent="169" source="134" target="136" edge="1">
                    <mxGeometry relative="1" as="geometry"/>
                </mxCell>
                <mxCell id="147" value="Process" style="swimlane;startSize=20;horizontal=1;childLayout=treeLayout;horizontalTree=0;resizable=0;containerType=tree;rounded=1;glass=0;fontSize=12;" parent="169" vertex="1">
                    <mxGeometry x="1040" y="1090" width="300" height="550" as="geometry"/>
                </mxCell>
                <mxCell id="148" value="XLA HLO" style="whiteSpace=wrap;html=1;rounded=1;glass=0;fontSize=12;startSize=20;" parent="147" vertex="1">
                    <mxGeometry x="21.32499999999999" y="40" width="257.35" height="40" as="geometry"/>
                </mxCell>
                <mxCell id="149" value="Target-Independent Optimization &amp;amp; Analysis" style="whiteSpace=wrap;html=1;rounded=1;glass=0;fontSize=12;startSize=20;" parent="147" vertex="1">
                    <mxGeometry x="20" y="130" width="260" height="40" as="geometry"/>
                </mxCell>
                <mxCell id="150" value="" style="edgeStyle=elbowEdgeStyle;elbow=vertical;html=1;rounded=0;fontSize=12;startSize=20;" parent="147" source="148" target="149" edge="1">
                    <mxGeometry relative="1" as="geometry"/>
                </mxCell>
                <mxCell id="154" value="" style="edgeStyle=elbowEdgeStyle;elbow=vertical;html=1;rounded=0;fontSize=12;startSize=20;" parent="147" source="149" target="155" edge="1">
                    <mxGeometry relative="1" as="geometry">
                        <mxPoint x="711.3249999999999" y="1200" as="sourcePoint"/>
                    </mxGeometry>
                </mxCell>
                <mxCell id="155" value="XLA HLO" style="whiteSpace=wrap;html=1;rounded=1;glass=0;fontSize=12;startSize=20;" parent="147" vertex="1">
                    <mxGeometry x="20" y="220" width="260" height="40" as="geometry"/>
                </mxCell>
                <mxCell id="156" value="" style="edgeStyle=elbowEdgeStyle;elbow=vertical;html=1;rounded=0;fontSize=12;startSize=20;" parent="147" source="155" target="157" edge="1">
                    <mxGeometry relative="1" as="geometry">
                        <mxPoint x="790" y="1290" as="sourcePoint"/>
                    </mxGeometry>
                </mxCell>
                <mxCell id="157" value="XLA BackEnds" style="whiteSpace=wrap;html=1;rounded=1;glass=0;fontSize=12;startSize=20;verticalAlign=top;dashed=1;" parent="147" vertex="1">
                    <mxGeometry x="20" y="310" width="260" height="220" as="geometry"/>
                </mxCell>
                <mxCell id="158" value="&lt;span&gt;Target-Dependent Optimization &amp;amp; Analysis&lt;/span&gt;" style="rounded=0;whiteSpace=wrap;html=1;glass=0;fontSize=12;startSize=20;" parent="147" vertex="1">
                    <mxGeometry x="70" y="360" width="160" height="60" as="geometry"/>
                </mxCell>
                <mxCell id="159" value="Target-Specific Code Generation" style="rounded=0;whiteSpace=wrap;html=1;glass=0;fontSize=12;startSize=20;" parent="147" vertex="1">
                    <mxGeometry x="70" y="420" width="160" height="60" as="geometry"/>
                </mxCell>
                <mxCell id="153" value="" style="shape=doubleArrow;whiteSpace=wrap;html=1;rounded=1;glass=0;fontSize=12;startSize=20;" parent="169" vertex="1">
                    <mxGeometry x="895" y="1310" width="140" height="60" as="geometry"/>
                </mxCell>
            </root>
        </mxGraphModel>
    </diagram>
</mxfile>
